<?xml version="1.0" encoding="UTF-8"?>
<svg width="100%" height="100%" viewBox="0 0 1078 1250" version="1.1" xmlns="http://www.w3.org/2000/svg" xmlns:xlink="http://www.w3.org/1999/xlink">
    <g stroke="none" fill="none" fill-rule="evenodd">
        <g fill="none" transform="translate(5.000000, 5.000000)">
            <path d="M624.240077,739.349002 C633.046554,780.554261 638.968801,884.588821 539.415051,916.002065" stroke="#545454" stroke-width="15" stroke-linecap="round" stroke-linejoin="round"></path>
            <path d="M539.415051,916.002065 C494.492542,930.704501 442.650439,929.56258 383.888741,912.576302" stroke="#545454" stroke-width="15" stroke-linecap="round" stroke-linejoin="round"></path>
            <path d="M383.888741,912.576302 C362.55099,900.023176 344.735898,892.140236 330.443464,888.927481 C309.004814,884.108349 305.797665,888.329294 299.260846,870.097793 C292.724028,851.866291 273.939984,767.493046 187.88749,739.916369 C176.252066,738.19628 150.064753,738.19628 109.325551,739.916369 C75.4602994,725.716827 52.7099612,705.347226 41.0745365,678.807567 C23.6213995,638.998079 -4.90901419,516.355257 1.13532066,491.015176 C3.21095871,465.050482 22.0238308,383.360671 17.9230043,376.958385 C13.8221777,370.556099 25.118069,302.742313 29.6897579,291.297476 C36.2658149,294.361284 51.7442129,307.522207 76.124952,330.780243 C109.050081,365.47511 146.30426,379.576155 187.88749,373.08338 C250.262335,363.344217 312.894233,349.04778 348.391487,354.10955 C363.857873,360.123455 375.690292,363.952014 383.888741,365.595228 C401.294632,369.32529 413.255176,374.14202 419.770373,380.045416 C426.28557,385.948813 434.325465,391.972327 443.890056,398.115959 C441.953755,433.092703 435.231154,452.759213 423.722254,457.11549 C406.458903,463.649906 375.860058,478.700685 358.481394,478.700685 C341.10273,478.700685 308.38981,477.521126 292.594301,482.325844 C287.829622,484.130816 279.449394,475.727365 267.453615,457.11549 C263.324761,444.663264 267.593753,436.251805 280.26059,431.881113 C299.260846,425.325076 310.811388,419.588243 320.627426,419.588243 C340.597434,422.933928 356.38894,423.731511 368.001942,421.980992 C379.614945,420.230473 398.188382,425.468416 423.722254,437.694821 C443.770739,441.570627 458.505206,441.570627 467.925656,437.694821 C473.779404,440.649723 479.156296,458.423174 484.056331,491.015176 C483.739171,514.7697 477.695613,546.994942 465.925656,587.690901" stroke="#545454" stroke-width="15" stroke-linecap="round" stroke-linejoin="round"></path>
            <path d="M466.244005,586.862087 C443.799567,637.337248 433.840989,672.262741 436.36827,691.638566 C439.452899,704.899586 454.682253,715.171272 482.056331,722.453623 C503.629513,728.033501 518.582596,730.823441 526.915578,730.823441 C539.415051,730.823441 555.38353,738.109795 570.87394,738.109795 C586.36435,738.109795 649.198045,743.791374 669.831906,730.823441 C683.78961,717.937188 687.41477,717.447107 700.983293,719.087918 C714.551815,720.728729 722.376298,720.940136 728.362976,696.594632 C734.349655,672.249127 740.309907,679.27383 740.309907,671.189687 C740.309907,663.105545 739.226443,623.286652 722.270594,590.893245 C714.762422,571.147457 711.08361,551.444911 711.234158,531.785608 C731.804756,545.946713 750.138758,553.027265 766.236164,553.027265 C790.382272,553.027265 793.457292,560.075786 839.279884,545.930697 C885.102477,531.785608 854.63336,538.89659 892.261506,527.177884 C903.22347,520.886106 901.599475,526.238561 918.982944,514.5655 C931.32306,509.818439 940.559329,506.486367 946.691751,504.569285 C943.283604,477.267277 939.681668,461.634327 935.885941,457.670435 C930.19235,451.724597 902.416277,432.748365 849.187212,445.2094 C814.80225,450.27117 707.777163,473.446726 682.77101,504.569285 C669.831906,520.345575 662.322132,534.365741 662.322132,574.391442" stroke="#545454" stroke-width="15" stroke-linecap="round" stroke-linejoin="round"></path>
            <g transform="translate(435.309340, 440.519293)"></g>
            <path d="M630.769983,726.043212 C631.672274,742.029321 637.770518,754.09202 649.064714,762.231308 C666.006007,774.440241 702.348116,787.353893 702.348116,787.353893 C730.303584,782.773988 749.060349,785.608427 758.618413,795.857209 C772.955507,811.230383 781.743512,839.825233 768.274483,862.880327 C757.736345,893.520889 753.234224,921.215004 754.768118,945.962672 C756.003324,1009.75777 757.898135,1046.51057 760.452553,1056.22109 C764.284178,1070.78687 774.514293,1111.49731 768.274483,1125.49371 C762.034673,1139.49012 743.627934,1201.04815 737.831492,1201.04815 C732.035049,1201.04815 654.73391,1223.0485 642.751946,1233.70798 C634.763971,1240.8143 618.895521,1240.8143 595.146596,1233.70798 C549.645542,1235.25432 519.421901,1228.96161 504.475673,1214.82987 C504.475673,1158.83959 501.008075,1155.56334 504.475673,1125.49371 C507.943271,1095.42408 522.257031,1030.92583 518.570082,1012.41175 C517.493556,1000.4455 504.886371,984.62429 480.748528,964.948121 C470.919777,932.076722 474.827554,917.883601 492.471859,922.368758 C519.546016,925.483576 535.71268,929.494488 540.971851,934.401493 C548.860607,941.762001 556.715594,991.490955 565.224259,995.961773 C573.732924,1000.43259 576.816725,1010.71414 611.575043,1015.44064 C625.87557,1019.34663 646.316879,1024.69183 672.898968,1031.47625 C697.655102,1037.24277 716.160292,1031.89756 728.414538,1015.44064 C746.795907,990.755266 768.07179,959.007415 800.284111,961.977768 C780.738906,953.918959 736.429125,956.250249 667.354768,968.971637 C653.650853,956.250249 638.173647,939.399756 620.923148,918.420159 C599.179721,917.534116 564.232888,929.301923 516.08265,953.723579" stroke="#545454" stroke-width="15" stroke-linecap="round" stroke-linejoin="round"></path>
            <path d="M990.035311,329.703851 C1009.62207,302.085447 1021.66751,286.420307 1026.17161,282.70843 C1032.92776,277.140615 1059.05102,221.927292 1063.76396,207.420659 C1068.4769,192.914025 1072.19753,160.889489 1051.12068,160.889489 C1030.04382,160.889489 1021.02416,168.183226 1016.61639,168.183226 C989.166019,169.628904 965.903129,170.351743 946.82772,170.351743 C934.030841,174.647011 922.581284,181.671283 912.479052,191.424559 C909.704912,189.809118 905.277607,171.701762 899.197135,137.102491 C890.076428,85.2035838 884.011144,87.4448567 879.667189,79.3164531 C875.323234,71.1880496 846.263484,67.9423469 836.170682,67.9423469 C826.077881,67.9423469 776.280799,64.2176707 768.388851,98.0004638 C763.194918,103.707727 707.474328,93.9584928 620.149567,67.9423469 C589.691295,59.86851 586.736614,57.6636149 574.580387,48.6560826 C562.424159,39.6485504 518.217123,0.0251093951 475.752176,0.0251093951 C433.28723,0.0251093951 390.579765,14.5943936 376.8694,44.1048234 C382.716784,50.7956326 372.935888,57.6663095 347.526712,64.7168541 C329.355358,68.0460909 284.627581,74.4256683 213.343382,83.8555865 C175.199302,87.3532387 155.26767,96.6362986 153.548485,111.704766 C136.485978,142.256677 121.862127,171.415455 109.676932,199.181101 C103.50619,216.616816 110.263692,236.100464 129.949437,257.632043 C141.680584,274.206628 140.55759,285.428439 126.580455,291.297476 C105.614751,300.101031 43.7052339,353.785541 37.4443544,394.502626 C31.1834748,435.219711 22.5881206,465.11915 30.0162375,487.462263 C37.4443544,509.805377 62.1913888,519.575981 69.1494055,523.761475 C76.1074222,527.946969 99.0757234,553.343063 109.676932,558.012012 C120.278141,562.680961 131.805194,586.127729 126.580455,634.429211 C126.499808,645.085327 131.212283,647.080407 140.717879,640.414451" stroke="#545454" stroke-width="15" stroke-linecap="round" stroke-linejoin="round"></path>
        </g>
    </g>
</svg>