<?xml version="1.0" standalone="no"?>
<!DOCTYPE svg PUBLIC "-//W3C//DTD SVG 20010904//EN"
 "http://www.w3.org/TR/2001/REC-SVG-20010904/DTD/svg10.dtd">
<svg version="1.0" xmlns="http://www.w3.org/2000/svg"
 width="1250.000000pt" height="1250.000000pt" viewBox="0 0 1250.000000 1250.000000"
 preserveAspectRatio="xMidYMid meet">
<metadata>
Created by potrace 1.11, written by Peter Selinger 2001-2013
</metadata>
<g transform="translate(0.000000,1250.000000) scale(0.100000,-0.100000)"
fill="#000000" stroke="none">
<path d="M5255 12479 c-296 -73 -513 -211 -622 -397 -14 -24 -26 -60 -27 -80
-1 -32 -6 -39 -36 -54 -54 -26 -210 -75 -260 -82 -25 -3 -54 -8 -65 -10 -11
-2 -40 -7 -65 -10 -25 -3 -56 -8 -70 -11 -14 -2 -41 -6 -60 -9 -51 -7 -261
-36 -290 -41 -66 -10 -118 -18 -149 -21 -19 -2 -84 -10 -145 -19 -61 -9 -127
-18 -146 -20 -19 -3 -46 -7 -60 -10 -14 -2 -52 -7 -85 -10 -33 -3 -69 -8 -80
-10 -11 -2 -42 -7 -70 -10 -143 -16 -220 -30 -315 -56 -173 -50 -265 -111
-316 -211 -13 -26 -22 -48 -19 -48 5 0 -50 -105 -102 -195 -43 -76 -271 -540
-314 -640 -42 -97 -43 -103 -43 -205 0 -164 47 -274 194 -455 61 -75 96 -136
104 -180 4 -23 -2 -35 -30 -62 -20 -18 -41 -33 -48 -33 -28 0 -239 -149 -336
-236 -19 -18 -55 -51 -80 -73 -25 -23 -48 -40 -51 -39 -4 2 -47 40 -95 84
-139 127 -267 231 -321 262 -35 19 -71 14 -97 -11 -17 -17 -31 -55 -50 -138
-27 -120 -61 -306 -72 -399 -3 -30 -7 -57 -9 -60 -7 -13 -18 -193 -15 -255 8
-165 6 -186 -35 -420 -8 -44 -17 -96 -20 -115 -3 -19 -17 -96 -31 -170 -14
-74 -27 -151 -30 -170 -3 -19 -12 -66 -19 -105 -11 -52 -13 -145 -11 -360 1
-159 6 -301 9 -315 4 -14 12 -54 18 -90 69 -432 266 -1158 374 -1384 124 -258
355 -468 658 -600 65 -28 85 -33 130 -28 28 3 198 5 377 6 367 0 357 2 540
-89 156 -77 257 -151 380 -275 201 -203 335 -444 460 -825 74 -229 107 -261
300 -290 79 -12 201 -49 290 -87 87 -37 130 -58 276 -139 69 -38 367 -112 539
-135 28 -3 61 -8 75 -9 41 -6 171 -17 233 -20 32 -1 59 -4 61 -6 2 -2 6 -35 9
-74 6 -73 9 -87 28 -170 20 -85 35 -108 111 -175 145 -129 234 -230 270 -309
16 -35 21 -67 22 -131 0 -79 -10 -216 -19 -250 -2 -8 -6 -37 -10 -65 -3 -27
-10 -75 -15 -105 -5 -30 -12 -71 -15 -90 -7 -40 -11 -62 -24 -145 -5 -33 -12
-71 -15 -85 -3 -14 -8 -41 -10 -60 -5 -36 -24 -164 -32 -210 -18 -107 -20
-261 -9 -694 8 -301 5 -289 84 -344 162 -111 388 -160 768 -166 88 -2 164 -6
170 -9 5 -3 23 -9 39 -13 37 -9 329 -17 358 -10 12 3 51 24 86 47 36 23 96 55
134 71 180 74 536 187 739 234 69 16 83 23 112 56 43 51 106 213 299 767 19
52 22 82 21 165 -2 55 -5 115 -8 131 -3 17 -11 64 -17 105 -7 41 -25 131 -42
200 -37 158 -35 146 -42 210 -13 115 -23 292 -31 519 -3 94 -3 94 28 120 96
82 188 121 297 126 66 3 78 7 98 30 29 35 28 61 -6 95 -37 37 -141 60 -297 67
-71 3 -123 10 -128 17 -13 19 -4 254 15 380 25 168 98 444 127 480 10 14 38
99 47 146 21 113 -6 293 -62 403 -91 182 -185 257 -369 292 -47 9 -246 6 -301
-4 -44 -9 -58 -6 -139 25 -49 20 -158 69 -241 109 -120 59 -162 85 -208 131
-32 31 -54 59 -50 63 5 4 41 13 79 20 121 20 186 47 251 102 92 78 93 79 245
74 109 -4 140 -2 166 11 79 39 125 112 168 264 30 106 42 132 80 175 41 46 44
61 39 184 -6 176 -39 362 -91 524 -15 45 -27 84 -28 87 0 3 -13 32 -28 65 -61
130 -118 333 -131 458 -3 35 6 48 18 28 10 -15 188 -89 268 -110 144 -39 543
-49 687 -18 120 26 401 112 501 153 47 20 128 50 180 68 52 17 101 35 108 39
6 5 44 19 84 33 40 13 102 42 138 63 36 22 121 58 190 82 69 23 136 52 149 63
21 19 23 27 18 86 -12 139 -57 354 -90 430 -50 114 -264 215 -501 237 -111 10
-315 3 -359 -12 -7 -2 -23 -7 -37 -9 -14 -3 -36 -7 -50 -10 -14 -3 -43 -7 -65
-11 -252 -37 -733 -157 -1004 -250 -379 -130 -587 -253 -705 -419 -118 -166
-162 -310 -173 -568 -5 -117 -3 -141 11 -163 20 -30 52 -40 89 -26 37 14 43
36 50 181 9 184 30 284 79 385 35 69 123 178 179 222 93 71 310 176 494 238
174 59 547 163 644 180 19 3 37 8 41 10 4 2 22 7 41 10 19 3 66 12 104 20 39
8 124 24 190 35 66 12 127 23 135 25 8 2 42 6 75 10 193 21 364 1 501 -60 88
-39 122 -71 139 -129 18 -63 44 -193 51 -261 l5 -50 -108 -39 c-59 -22 -134
-56 -166 -75 -32 -19 -86 -44 -120 -56 -34 -12 -115 -41 -180 -64 -65 -22
-135 -50 -156 -60 -91 -47 -488 -163 -601 -177 -43 -5 -170 -5 -225 1 -22 2
-87 6 -145 10 -175 10 -278 46 -475 166 -85 52 -110 55 -148 22 -18 -17 -19
-27 -14 -143 3 -69 8 -136 11 -150 3 -13 8 -40 11 -60 16 -109 63 -263 108
-360 58 -122 112 -311 132 -455 3 -27 8 -63 11 -80 2 -16 6 -64 9 -106 5 -70
3 -79 -20 -110 -38 -52 -63 -108 -96 -219 -25 -86 -44 -131 -67 -160 -2 -3
-70 -5 -150 -5 -169 0 -193 -8 -295 -95 -45 -38 -70 -51 -134 -68 -43 -11 -99
-23 -125 -26 -46 -5 -47 -4 -53 27 -12 59 -16 67 -43 80 -60 29 -116 -16 -108
-85 l4 -38 -221 5 c-330 7 -381 12 -526 45 -73 16 -163 32 -200 35 -137 11
-214 24 -411 75 -260 66 -393 140 -433 240 -30 74 2 266 87 522 30 90 61 177
70 193 9 17 16 36 16 43 0 7 4 20 10 30 24 42 94 213 111 272 22 71 95 360
103 400 2 14 13 75 25 135 25 138 29 161 37 266 13 161 13 154 -16 304 -5 28
-12 64 -15 80 -21 129 -77 283 -119 327 -45 47 -62 51 -132 33 -32 -8 -80 -15
-107 -15 -46 0 -49 1 -44 23 11 42 26 152 33 232 4 44 8 82 9 83 11 13 -23 65
-58 88 -65 44 -158 114 -207 157 -79 69 -182 112 -395 165 -66 17 -172 49
-235 71 -63 22 -132 43 -154 46 -77 13 -369 7 -452 -9 -18 -4 -111 -15 -164
-21 -14 -1 -61 -8 -105 -14 -89 -14 -96 -15 -180 -29 -33 -6 -76 -13 -95 -16
-19 -3 -46 -8 -60 -11 -27 -6 -64 -12 -107 -20 -16 -2 -84 -14 -153 -25 -69
-12 -134 -23 -145 -25 -11 -1 -40 -6 -65 -10 -118 -19 -162 -23 -255 -23 -180
1 -327 38 -495 124 -82 42 -237 152 -293 208 l-28 28 23 20 c13 11 43 38 68
62 25 23 68 59 95 81 28 22 52 43 55 46 12 14 130 89 180 114 81 41 117 71
141 122 52 106 6 250 -126 398 -53 58 -114 165 -137 237 -28 88 -21 171 22
263 66 144 281 574 344 690 36 66 71 135 77 155 14 43 33 66 79 95 69 44 211
84 355 100 68 8 125 15 155 20 31 5 167 22 235 30 28 4 57 8 65 10 8 2 40 7
70 10 30 3 82 10 115 15 33 5 83 12 110 15 28 4 61 8 75 10 14 2 77 11 140 20
140 20 168 24 200 30 14 3 43 7 65 10 22 2 49 6 60 9 32 6 97 17 132 21 43 5
206 61 265 91 86 43 144 127 125 178 -3 8 7 32 22 53 121 166 385 286 705 319
80 8 232 8 281 0 59 -10 159 -38 169 -47 6 -5 16 -9 24 -9 46 0 325 -163 477
-279 336 -256 286 -232 760 -367 196 -56 285 -80 490 -134 43 -11 296 -71 320
-76 11 -2 31 -6 45 -9 14 -3 63 -12 110 -21 47 -8 92 -17 100 -19 40 -11 125
-19 222 -19 127 -1 150 11 184 94 59 146 218 213 509 214 167 0 244 -7 350
-34 70 -17 85 -25 118 -62 70 -79 109 -192 161 -463 71 -369 89 -452 110 -524
26 -90 47 -127 81 -143 33 -15 63 -4 110 38 54 49 138 105 206 136 52 25 67
26 260 32 468 13 497 15 594 47 50 17 119 34 155 38 57 8 77 8 126 2 7 0 21
-19 32 -42 28 -56 24 -203 -8 -304 -65 -203 -325 -721 -386 -766 -11 -8 -33
-32 -50 -54 -248 -323 -307 -410 -306 -448 1 -51 66 -86 109 -59 11 7 94 114
133 172 39 58 178 238 220 284 71 78 103 130 205 333 99 196 204 436 224 513
8 30 11 106 9 216 -3 170 -3 171 -32 213 -47 67 -102 94 -194 94 -103 1 -159
-9 -262 -43 -94 -31 -188 -38 -593 -45 -109 -2 -204 -9 -225 -16 -56 -18 -167
-76 -223 -115 -27 -20 -49 -33 -49 -30 0 3 -12 61 -26 128 -24 114 -49 242
-60 313 -3 17 -14 73 -25 125 -11 52 -22 103 -24 112 -40 191 -139 370 -234
421 -103 55 -297 86 -521 81 -167 -3 -197 -7 -300 -35 -149 -40 -276 -135
-317 -235 l-18 -46 -80 6 c-44 3 -96 8 -115 12 -132 22 -307 57 -398 80 -59
14 -114 27 -122 29 -72 15 -473 123 -625 170 -44 13 -100 29 -125 35 -75 19
-203 62 -245 83 -22 10 -112 74 -200 140 -88 67 -203 150 -255 185 -115 76
-306 172 -414 207 -76 24 -86 25 -350 24 -234 0 -282 -3 -351 -20z m-3911
-3139 c44 -38 113 -100 153 -137 l72 -68 -32 -35 c-47 -50 -127 -155 -173
-225 -98 -149 -135 -247 -169 -447 -14 -84 -27 -164 -30 -178 -48 -283 -56
-342 -57 -460 -2 -282 106 -452 387 -605 81 -45 102 -61 210 -164 119 -113
163 -149 236 -197 74 -48 91 -69 124 -157 34 -90 48 -203 44 -362 -5 -244 -4
-269 9 -301 26 -61 118 -87 186 -53 59 31 86 60 86 93 0 62 -55 90 -123 61
-16 -7 -17 -2 -12 49 17 159 6 361 -26 491 -39 151 -90 229 -197 298 -66 43
-127 94 -252 214 -89 84 -125 112 -207 157 -170 92 -267 193 -298 312 -15 56
-22 233 -11 294 3 14 10 61 16 105 7 44 13 87 15 95 9 47 56 321 60 355 19
129 124 329 247 470 14 17 36 43 49 58 l24 28 40 -37 c50 -46 174 -140 240
-182 109 -68 287 -138 405 -158 14 -3 48 -9 75 -14 72 -15 329 -6 425 14 13 3
42 8 65 11 66 10 95 15 205 35 58 11 119 21 135 24 77 12 102 16 125 21 91 17
399 63 530 79 205 25 452 25 491 0 27 -16 190 -69 294 -95 243 -60 268 -72
470 -228 l97 -75 -7 -65 c-3 -36 -8 -77 -10 -91 -3 -14 -7 -38 -10 -55 -14
-88 -12 -85 -58 -71 -23 8 -80 30 -126 50 -197 85 -326 117 -456 110 -164 -9
-326 -4 -397 12 -63 14 -151 12 -213 -6 -89 -25 -309 -107 -365 -135 -109 -55
-157 -165 -125 -286 16 -58 100 -183 177 -260 71 -72 112 -87 195 -70 32 6 72
14 88 17 17 3 154 8 305 10 311 6 365 13 535 76 191 70 399 159 433 185 19 14
47 47 64 74 l30 49 76 0 c43 0 94 4 114 9 32 8 39 6 50 -13 34 -54 98 -335
100 -441 2 -45 -11 -226 -17 -234 -1 -3 -6 -28 -10 -56 -5 -40 -32 -182 -50
-266 -35 -163 -100 -372 -160 -519 -96 -233 -178 -465 -201 -571 -29 -135 -36
-188 -37 -270 -1 -86 2 -102 26 -150 87 -174 291 -274 737 -363 69 -14 155
-26 190 -27 36 -1 112 -13 170 -26 222 -49 225 -49 564 -58 109 -2 201 -6 203
-8 13 -14 31 -198 33 -342 2 -148 -6 -228 -46 -435 -3 -14 -19 -65 -36 -115
-117 -343 -368 -591 -721 -711 -209 -72 -292 -83 -517 -73 -73 3 -90 1 -122
-18 -32 -19 -48 -21 -130 -18 -93 4 -193 12 -258 21 -208 28 -485 94 -545 128
-106 63 -292 149 -398 185 -64 22 -118 40 -120 40 -2 -1 -93 13 -107 16 -3 1
-24 5 -47 9 -26 5 -50 17 -61 31 -10 13 -40 88 -67 167 -89 264 -164 429 -269
591 -214 331 -522 566 -886 675 -8 3 -190 5 -405 6 l-390 1 -83 43 c-170 87
-324 211 -417 334 -91 121 -176 336 -266 671 -22 84 -44 163 -49 177 -8 24
-74 306 -84 360 -2 14 -9 45 -14 70 -10 45 -28 134 -36 180 -2 14 -9 52 -15
85 -6 33 -13 83 -16 110 -4 28 -9 61 -12 75 -2 14 -6 84 -8 155 -3 117 0 158
29 340 5 33 45 253 60 330 6 32 54 316 61 360 4 22 10 63 15 90 8 48 7 151 -2
226 -3 20 -1 65 3 100 4 35 10 91 14 124 3 33 8 69 10 80 3 11 7 38 10 60 11
78 24 151 51 283 2 12 7 22 10 22 4 0 43 -31 88 -70z m2867 -1175 c24 -3 60
-8 79 -10 48 -7 207 -8 315 -2 108 6 186 -12 350 -80 61 -25 134 -54 163 -66
l53 -20 -28 -23 c-15 -13 -33 -23 -38 -24 -6 0 -75 -27 -154 -60 -200 -83
-344 -130 -415 -135 -34 -3 -173 -7 -311 -10 -137 -2 -263 -7 -280 -10 -16 -3
-43 -8 -60 -11 -16 -3 -37 -7 -45 -10 -21 -5 -64 36 -127 122 -60 81 -72 107
-66 149 5 40 43 70 128 99 39 14 121 43 183 64 116 41 135 43 253 27z m3214
-3442 c55 -33 212 -109 290 -141 202 -82 205 -83 247 -77 24 3 59 8 78 10 60
8 183 7 235 0 140 -21 233 -116 284 -290 37 -126 31 -225 -19 -340 -36 -83
-89 -262 -115 -395 -35 -173 -35 -174 -41 -369 -5 -171 -5 -174 -27 -177 -12
-1 -53 -5 -92 -9 -99 -9 -156 -15 -185 -20 -14 -2 -45 -7 -70 -10 -25 -3 -56
-8 -70 -10 -14 -2 -43 -6 -65 -10 -22 -3 -92 -14 -155 -25 l-115 -19 -80 84
c-137 143 -178 187 -260 285 -120 142 -104 133 -215 126 -52 -3 -111 -8 -130
-12 -60 -11 -291 -81 -375 -114 -167 -65 -166 -65 -173 -54 -4 7 -22 20 -40
31 l-33 20 48 17 c438 159 702 420 837 828 66 197 81 308 81 589 l0 206 55
-47 c30 -26 78 -60 105 -77z m-296 -1585 c135 -167 393 -433 431 -447 16 -5
30 -8 32 -6 1 1 21 5 43 9 48 7 211 34 240 40 12 2 48 8 80 12 33 4 62 8 65 9
3 1 34 5 70 9 36 4 79 10 95 12 17 2 64 7 105 10 41 3 81 7 88 9 9 3 12 -14
12 -63 0 -66 -1 -70 -46 -123 -25 -30 -53 -63 -63 -74 -9 -11 -51 -66 -94
-122 -94 -124 -126 -156 -197 -191 -51 -25 -64 -27 -175 -27 -109 1 -134 5
-277 43 -419 112 -492 130 -593 148 -83 14 -171 49 -238 94 -125 84 -123 80
-207 365 -21 72 -41 137 -45 146 -5 13 12 24 82 53 84 36 269 100 322 112 75
18 160 32 192 33 31 1 41 -5 78 -51z m-1036 -28 c147 -33 146 -30 37 -84 -121
-60 -135 -74 -131 -128 2 -26 37 -58 65 -58 13 0 72 23 130 50 58 28 110 50
114 50 4 0 31 -80 60 -178 69 -233 97 -290 169 -345 31 -23 65 -49 77 -58 64
-50 211 -108 316 -124 51 -8 352 -81 390 -95 14 -5 36 -12 50 -14 14 -3 70
-17 125 -31 233 -61 333 -70 458 -41 144 34 216 87 348 261 52 68 95 123 95
122 1 -1 5 -69 8 -152 12 -266 23 -359 56 -490 17 -64 42 -186 55 -260 2 -16
7 -41 10 -55 3 -14 7 -65 9 -114 5 -100 7 -91 -89 -356 -36 -102 -75 -212 -87
-245 -11 -33 -38 -104 -60 -157 -37 -89 -43 -97 -71 -103 -18 -4 -63 -15 -102
-26 -381 -105 -703 -220 -808 -290 -32 -21 -73 -42 -90 -47 -52 -14 -161 -4
-267 24 -44 11 -113 17 -216 19 -289 5 -444 26 -584 82 -36 14 -80 36 -97 47
l-33 21 -1 110 c0 61 -3 155 -5 210 -11 262 -6 486 12 579 2 12 7 41 10 66 3
25 7 56 10 70 152 903 154 977 31 1162 -40 62 -269 298 -288 298 -10 0 -26 35
-33 73 -2 12 -8 40 -13 62 -5 22 -9 65 -8 95 l0 55 50 3 c28 1 55 4 60 6 31 9
167 1 238 -14z"/>
</g>
</svg>
